<?xml version="1.0" encoding="UTF-8"?> <svg xmlns="http://www.w3.org/2000/svg" width="1233" height="182" viewBox="0 0 1233 182" fill="none"><path d="M60 1V61H0C0 27.9 26.9 1 60 1Z" fill="black"></path><path d="M180 61H120V1C153.1 1 180 27.9 180 61Z" fill="black"></path><path d="M59.9868 121.014L59.9868 181.014H119.987V121.014H59.9868Z" fill="black"></path><path d="M59.9868 61.0137L59.9868 121.014H119.987V61.0137L59.9868 61.0137Z" fill="black"></path><path d="M59.9868 1.0127L59.9868 61.0127L119.987 61.0127V1.0127L59.9868 1.0127Z" fill="black"></path><path d="M0 121H60V181C26.9 181 0 154.1 0 121Z" fill="black"></path><path d="M120 181V121H180C180 154.1 153.1 181 120 181Z" fill="black"></path><path d="M381 59.8906C379.797 55.7083 378.107 52.013 375.93 48.8047C373.753 45.5391 371.089 42.7891 367.938 40.5547C364.844 38.263 361.292 36.5156 357.281 35.3125C353.328 34.1094 348.945 33.5078 344.133 33.5078C335.138 33.5078 327.232 35.7422 320.414 40.2109C313.654 44.6797 308.383 51.1823 304.602 59.7187C300.82 68.1979 298.93 78.5677 298.93 90.8281C298.93 103.089 300.792 113.516 304.516 122.109C308.24 130.703 313.51 137.263 320.328 141.789C327.146 146.258 335.195 148.492 344.477 148.492C352.898 148.492 360.089 147.003 366.047 144.023C372.063 140.987 376.646 136.719 379.797 131.219C383.005 125.719 384.609 119.216 384.609 111.711L392.172 112.828H346.797V84.8125H420.445V106.984C420.445 122.453 417.18 135.745 410.648 146.859C404.117 157.917 395.122 166.453 383.664 172.469C372.206 178.427 359.086 181.406 344.305 181.406C327.805 181.406 313.31 177.768 300.82 170.492C288.331 163.159 278.591 152.76 271.602 139.297C264.669 125.776 261.203 109.734 261.203 91.1719C261.203 76.9062 263.266 64.1875 267.391 53.0156C271.573 41.7865 277.417 32.276 284.922 24.4844C292.427 16.6927 301.164 10.763 311.133 6.6953C321.102 2.6276 331.901 0.593743 343.531 0.593743C353.5 0.593743 362.781 2.05468 371.375 4.97656C379.969 7.84114 387.589 11.9089 394.234 17.1797C400.938 22.4505 406.409 28.7239 410.648 36C414.888 43.2187 417.609 51.1823 418.813 59.8906H381ZM448.396 179V2.99999H517.834C531.126 2.99999 542.469 5.3776 551.865 10.1328C561.318 14.8307 568.508 21.5052 573.436 30.1563C578.42 38.75 580.912 48.862 580.912 60.4922C580.912 72.1797 578.391 82.2344 573.35 90.6562C568.308 99.0208 561.003 105.437 551.436 109.906C541.925 114.375 530.41 116.609 516.889 116.609H470.396V86.7031H510.873C517.977 86.7031 523.878 85.7292 528.576 83.7813C533.274 81.8333 536.769 78.9115 539.061 75.0156C541.41 71.1198 542.584 66.2786 542.584 60.4922C542.584 54.6484 541.41 49.7214 539.061 45.7109C536.769 41.7005 533.245 38.6641 528.49 36.6016C523.792 34.4818 517.863 33.4219 510.701 33.4219H485.607V179H448.396ZM543.443 98.9063L587.186 179H546.107L503.311 98.9063H543.443ZM637.545 179H597.67L658.428 2.99999H706.381L767.053 179H727.178L683.092 43.2187H681.717L637.545 179ZM635.053 109.82H729.24V138.867H635.053V109.82ZM788.236 179V2.99999H858.705C871.653 2.99999 882.452 4.91927 891.104 8.75781C899.755 12.5964 906.257 17.9245 910.611 24.7422C914.965 31.5026 917.143 39.2943 917.143 48.1172C917.143 54.9922 915.768 61.0365 913.018 66.25C910.268 71.4062 906.486 75.6458 901.674 78.9687C896.919 82.2344 891.476 84.5547 885.346 85.9297V87.6484C892.049 87.9349 898.322 89.8255 904.166 93.3203C910.067 96.8151 914.851 101.714 918.518 108.016C922.184 114.26 924.018 121.708 924.018 130.359C924.018 139.698 921.697 148.034 917.057 155.367C912.473 162.643 905.684 168.401 896.689 172.641C887.695 176.88 876.609 179 863.432 179H788.236ZM825.447 148.578H855.783C866.153 148.578 873.715 146.602 878.471 142.648C883.226 138.638 885.604 133.31 885.604 126.664C885.604 121.794 884.429 117.497 882.08 113.773C879.731 110.049 876.38 107.128 872.025 105.008C867.729 102.888 862.601 101.828 856.643 101.828H825.447V148.578ZM825.447 76.6484H853.033C858.132 76.6484 862.658 75.7604 866.611 73.9844C870.622 72.151 873.773 69.5729 876.064 66.25C878.413 62.9271 879.588 58.9453 879.588 54.3047C879.588 47.9453 877.325 42.8177 872.799 38.9219C868.33 35.026 861.971 33.0781 853.721 33.0781H825.447V76.6484ZM948.23 179V2.99999H985.441V148.32H1060.89V179H948.23ZM1052.77 2.99999H1094.45L1134.59 78.7969H1136.3L1176.44 2.99999H1218.12L1153.92 116.781V179H1116.97V116.781L1052.77 2.99999Z" fill="black"></path></svg> 